<svg xmlns="http://www.w3.org/2000/svg"  viewBox="0 0 24 24" width="22px" height="22px"><path d="M 6.9785156 1 C 3.6821289 1 1 3.6821289 1 6.9785156 L 1 17.021484 C 1 20.317871 3.6821289 23 6.9785156 23 L 17.021484 23 C 20.317871 23 23 20.317871 23 17.021484 L 23 6.9785156 C 23 3.6821289 20.317871 1 17.021484 1 L 6.9785156 1 z M 6.9785156 3 L 17.021484 3 C 19.214844 3 21 4.7851563 21 6.9785156 L 21 17.021484 C 21 19.214844 19.214844 21 17.021484 21 L 6.9785156 21 C 4.7851563 21 3 19.214844 3 17.021484 L 3 6.9785156 C 3 4.7851563 4.7851563 3 6.9785156 3 z M 18 4 A 1 1 0 0 0 18 6 A 1 1 0 0 0 18 4 z M 12 6 C 8.6914063 6 6 8.6914063 6 12 C 6 15.308594 8.6914062 18 12 18 C 15.308594 18 18 15.308594 18 12 C 18 8.6914063 15.308594 6 12 6 z M 12 8 C 14.205566 8 16 9.7944336 16 12 C 16 14.205566 14.205566 16 12 16 C 9.7944336 16 8 14.205566 8 12 C 8 9.7944336 9.7944336 8 12 8 z"/></svg>